<?xml version="1.0" encoding="UTF-8" standalone="no"?>
<svg
   viewBox="0 0 56 56"
   width="56"
   height="56"
   fill="none"
   class="ToncoinWidget__logo"
   version="1.1"
   id="svg9784"
   xmlns="http://www.w3.org/2000/svg"
   xmlns:svg="http://www.w3.org/2000/svg">
  <defs
     id="defs9788" />
  <path
     class="fil2"
     d="M 56,28.00111 C 56,43.46362 43.463339,55.99999 27.99832,55.99999 12.53555,55.99999 9.59e-6,43.46362 9.59e-6,28.00111 9.59e-6,12.53637 12.53555,0 27.99832,0 43.463339,0 56,12.53637 56,28.00111 Z M 31.23092,42.32026 c 1.51295,-4.6686 5.900389,-8.04462 11.074169,-8.04462 0.1768,0 0.35241,0.002 0.52809,0.009 1.48887,-2.51512 2.34522,-5.45153 2.34522,-8.58535 0,-9.31878 -7.55693,-16.87435 -16.873589,-16.87435 -9.31784,0 -16.87475,7.55557 -16.87475,16.87435 0,3.13382 0.85523,6.07023 2.34528,8.58535 0.17562,-0.009 0.35123,-0.009 0.52802,-0.009 5.17379,0 9.56122,3.37602 11.07423,8.04462 0.3696,1.13302 1.36947,5.06923 1.36947,6.32277 v 0 4.21395 C 13.58477,52.20382 3.1097996,41.3273 3.1097996,28.00111 3.1097996,14.25708 14.25285,3.1143 27.99832,3.1143 c 13.744309,0 24.88847,11.14278 24.88847,24.88681 0,13.11844 -10.151231,23.86755 -23.0254,24.81682 v -4.1853 c 0.006,-1.26726 1.00106,-5.18394 1.36953,-6.31237 z M 29.86139,14.50163 C 31.20797,13.969 32.59004,13.5213 33.992839,13.16661 32.70831,12.58575 31.31929,12.19202 29.86139,12.02671 Z m 7.786519,1.09965 c -2.68274,0.40739 -5.301189,1.17321 -7.786519,2.27637 v 3.80765 c 3.222289,-1.65761 6.726949,-2.64363 10.329199,-2.92149 -0.68875,-1.17889 -1.54515,-2.24185 -2.54268,-3.16253 z m 3.85935,6.20684 c -4.10732,0.13297 -8.10561,1.30171 -11.645869,3.44027 v 5.05774 c 1.69551,-1.35339 3.608019,-2.42669 5.666249,-3.16821 2.10419,-0.76111 4.31166,-1.15599 6.53526,-1.1824 0,-0.0849 0,-0.16991 0,-0.25483 0,-1.35225 -0.19516,-2.6597 -0.55676,-3.89257 z m 0.13894,7.27094 c -1.72194,0.0667 -3.43006,0.39627 -5.06475,0.98717 -2.57483,0.92757 -4.876429,2.47148 -6.720059,4.48951 v 3.42884 c 2.41875,-3.79271 6.483559,-6.32615 11.048969,-6.75669 0.30536,-0.69673 0.55098,-1.41534 0.73584,-2.14883 z M 26.74706,37.98573 V 12.02671 c -6.86817,0.77489 -12.20262,6.59821 -12.20262,13.67398 0,1.91473 0.39144,3.78933 1.15254,5.5272 4.56651,0.43054 8.63133,2.96398 11.05008,6.75784 z"
     id="path3920"
     style="clip-rule:evenodd;fill:#2188ff;fill-opacity:1;fill-rule:evenodd;stroke-width:0.000975554;image-rendering:optimizeQuality;shape-rendering:geometricPrecision;text-rendering:geometricPrecision" />
</svg>
