<?xml version="1.0" encoding="UTF-8" standalone="no"?>
<svg
   width="32"
   height="32"
   viewBox="0 0 32 32"
   fill="none"
   version="1.1"
   id="svg6"
   xmlns="http://www.w3.org/2000/svg"
   xmlns:svg="http://www.w3.org/2000/svg">
  <defs
     id="defs10" />
  <path
     class="fil2"
     d="M 32,16.00064 C 32,24.83636 24.83619,32 15.99904,32 7.1631702,32 -9.8e-6,24.83636 -9.8e-6,16.00064 -9.8e-6,7.16365 7.1631702,0 15.99904,0 24.83619,0 32,7.16365 32,16.00064 Z m -14.15376,8.18238 c 0.86454,-2.66778 3.37165,-4.59693 6.3281,-4.59693 0.10102,0 0.20137,0.001 0.30176,0.005 0.85078,-1.43721 1.34012,-3.11516 1.34012,-4.90591 0,-5.32502 -4.31824,-9.64249 -9.64205,-9.64249 -5.32448,0 -9.6427198,4.31747 -9.6427198,9.64249 0,1.79075 0.48871,3.4687 1.34016,4.90591 0.10036,-0.005 0.20071,-0.005 0.30173,-0.005 2.9564498,0 5.4635598,1.92915 6.3281298,4.59693 0.2112,0.64744 0.78256,2.8967 0.78256,3.61301 v 0 2.40797 C 7.7627202,29.83077 1.7770202,23.61561 1.7770202,16.00064 c 0,-7.85373 6.36746,-14.22104 14.2220198,-14.22104 7.85389,0 14.22198,6.36731 14.22198,14.22104 0,7.49626 -5.8007,13.63861 -13.15737,14.18105 v -2.3916 c 0.003,-0.72415 0.57203,-2.96226 0.78259,-3.60707 z M 17.06365,8.28665 C 17.83312,7.98229 18.62288,7.72646 19.42448,7.52379 18.69046,7.19186 17.89673,6.96688 17.06365,6.87241 Z m 4.44944,0.62838 c -1.533,0.23279 -3.02925,0.6704 -4.44944,1.30078 v 2.1758 c 1.84131,-0.94721 3.84397,-1.51065 5.9024,-1.66942 C 22.57248,10.04853 22.0831,9.44113 21.51309,8.91503 Z m 2.20534,3.54676 c -2.34704,0.076 -4.63178,0.74384 -6.65478,1.96587 v 2.89014 c 0.96886,-0.77337 2.06172,-1.38668 3.23785,-1.81041 1.2024,-0.43492 2.46381,-0.66056 3.73444,-0.67566 0,-0.0485 0,-0.0971 0,-0.14561 0,-0.77272 -0.11152,-1.51983 -0.31815,-2.22433 z m 0.0794,4.15483 c -0.98396,0.0381 -1.96003,0.22644 -2.89414,0.56409 -1.47133,0.53004 -2.78653,1.41228 -3.84003,2.56544 v 1.95934 c 1.38214,-2.16727 3.70489,-3.61495 6.31369,-3.86097 0.1745,-0.39813 0.31485,-0.80877 0.42048,-1.2279 z m -8.51379,5.08952 V 6.87241 c -3.92467,0.44279 -6.9729298,3.77041 -6.9729298,7.81371 0,1.09413 0.22368,2.16533 0.6586,3.1584 2.6094298,0.24602 4.9321898,1.6937 6.3143298,3.86162 z"
     id="path3920"
     style="clip-rule:evenodd;fill:#898b8f;fill-opacity:1;fill-rule:evenodd;stroke-width:0.000975553;image-rendering:optimizeQuality;shape-rendering:geometricPrecision;text-rendering:geometricPrecision" />
</svg>
